<?xml version="1.0" standalone="no"?>
<!DOCTYPE svg PUBLIC "-//W3C//DTD SVG 20010904//EN"
 "http://www.w3.org/TR/2001/REC-SVG-20010904/DTD/svg10.dtd">
<svg version="1.0" xmlns="http://www.w3.org/2000/svg"
 width="426.000000pt" height="426.000000pt" viewBox="0 0 426.000000 426.000000"
 preserveAspectRatio="xMidYMid meet">
<metadata>
Created by potrace 1.11, written by Peter Selinger 2001-2013
</metadata>
<g transform="translate(0.000000,426.000000) scale(0.100000,-0.100000)"
fill="#000000" stroke="none">
<path d="M1945 4224 c-208 -18 -421 -70 -615 -149 -330 -135 -630 -354 -817
-597 -90 -116 -143 -187 -143 -191 0 -6 -65 -114 -78 -130 -31 -38 -120 -229
-157 -337 -1 -3 -5 -13 -8 -22 -24 -62 -64 -222 -82 -323 -23 -127 -31 -438
-16 -572 48 -416 197 -769 467 -1108 40 -49 85 -102 100 -116 16 -14 43 -41
59 -60 40 -45 171 -159 182 -159 5 0 22 -14 38 -30 16 -17 35 -30 42 -30 7 0
13 -4 13 -9 0 -5 16 -16 35 -25 19 -9 37 -21 40 -26 4 -6 23 -19 43 -29 20
-10 71 -36 112 -58 41 -21 77 -39 80 -39 3 -1 27 -11 54 -23 27 -12 69 -28 92
-36 24 -8 52 -19 61 -24 24 -12 216 -63 256 -67 18 -2 52 -8 77 -13 207 -44
564 -35 800 19 25 6 56 12 70 14 14 2 32 6 40 8 67 22 89 28 103 28 9 0 17 4
17 9 0 5 14 11 32 15 38 7 139 55 153 72 6 7 29 17 51 23 54 14 133 57 258
139 127 83 111 70 286 242 154 152 242 258 330 400 58 93 153 287 190 390 13
36 27 67 31 70 4 3 15 39 24 80 9 41 19 86 23 100 3 14 4 31 3 38 -1 8 2 19 8
25 35 43 51 537 23 712 -36 219 -114 463 -203 635 -112 214 -272 430 -413 559
-22 20 -49 46 -60 57 -39 41 -200 164 -213 164 -7 0 -13 4 -13 8 0 8 -41 34
-163 106 -58 34 -161 83 -212 102 -27 9 -54 21 -60 24 -27 19 -217 74 -351
101 -133 28 -171 32 -349 34 -110 2 -218 1 -240 -1z"/>
</g>
</svg>
